<svg fill="none" height="24" viewBox="0 0 24 24" width="24" xmlns="http://www.w3.org/2000/svg"><g fill="#292d32"><path d="m12 22.75c-5.93 0-10.75-4.82-10.75-10.75s4.82-10.75 10.75-10.75 10.75 4.82 10.75 10.75-4.82 10.75-10.75 10.75zm0-20c-5.1 0-9.25 4.15-9.25 9.25s4.15 9.25 9.25 9.25 9.25-4.15 9.25-9.25-4.15-9.25-9.25-9.25z"/><path d="m12 13c-.56 0-1-.45-1-1s.45-1 1-1 1 .45 1 1-.44 1-1 1z"/><path d="m16 13c-.56 0-1-.45-1-1s.45-1 1-1 1 .45 1 1-.44 1-1 1z"/><path d="m8 13c-.56 0-1-.45-1-1s.45-1 1-1 1 .45 1 1-.44 1-1 1z"/></g></svg>