<svg height="56" viewBox="0 0 56 56" width="56" xmlns="http://www.w3.org/2000/svg"><path d="m28.0117 28.0234c5.5781 0 10.125-4.9687 10.125-11.0156 0-6-4.5-10.7109-10.125-10.7109-5.5547 0-10.125 4.8047-10.125 10.7578.0234 6.0235 4.5703 10.9687 10.125 10.9687zm0-3.539c-3.4219 0-6.3516-3.2813-6.3516-7.4297 0-4.0781 2.8829-7.2187 6.3516-7.2187 3.5157 0 6.3516 3.0937 6.3516 7.1718 0 4.1485-2.8828 7.4766-6.3516 7.4766zm-14.7187 25.2187h29.4375c3.8906 0 5.7421-1.1718 5.7421-3.75 0-6.1406-7.7343-15.0234-20.4609-15.0234-12.7265 0-20.4843 8.8828-20.4843 15.0234 0 2.5782 1.8515 3.75 5.7656 3.75zm-1.1251-3.539c-.6093 0-.8671-.1641-.8671-.6563 0-3.8437 5.9531-11.0391 16.7109-11.0391s16.6875 7.1954 16.6875 11.0391c0 .4922-.2344.6563-.8437.6563z"/></svg>