<svg height="24" viewBox="0 0 24 24" width="24" xmlns="http://www.w3.org/2000/svg"><path d="m19.6083273 19.5107621c.2432975-.2666304.3916727-.6213688.3916727-1.0107621v-13c0-.82842712-.6715729-1.5-1.5-1.5h-13c-.82842712 0-1.5.67157288-1.5 1.5v13c0 .8284271.67157288 1.5 1.5 1.5s1.5-.6715729 1.5-1.5v-2c0-.3333333.32-.5733333.64-.48zm-1.8940416.4892379-9.7142857-2.8333333v1.3333333c0 .562803-.18597241 1.0821697-.49981691 1.5zm.7857143-17c1.3807119 0 2.5 1.11928813 2.5 2.5v13c0 1.3807119-1.1192881 2.5-2.5 2.5h-13c-1.38071187 0-2.5-1.1192881-2.5-2.5v-13c0-1.38071187 1.11928813-2.5 2.5-2.5z"/></svg>