<svg height="24" viewBox="0 0 24 24" width="24" xmlns="http://www.w3.org/2000/svg"><path d="m24 4.3086c-.883.392-1.832.656-2.828.775 1.016-.609 1.797-1.574 2.165-2.724-.951.565-2.005.974-3.127 1.196-.898-.958-2.178-1.556-3.594-1.556-2.719 0-4.924 2.205-4.924 4.924 0 .386.044.762.128 1.122-4.092-.205-7.721-2.165-10.149-5.145-.424.728-.667 1.573-.667 2.476 0 1.708.869 3.216 2.191 4.099-.807-.027-1.567-.248-2.231-.616v.061c0 2.386 1.697 4.376 3.95 4.828-.413.114-.849.173-1.297.173-.318 0-.626-.031-.927-.088.627 1.956 2.445 3.38 4.6 3.42-1.686 1.32-3.809 2.107-6.115 2.107-.398 0-.79-.023-1.175-.068 2.179 1.396 4.767 2.212 7.548 2.212 9.057 0 14.009-7.503 14.009-14.01 0-.213-.005-.425-.014-.636.962-.695 1.797-1.562 2.457-2.55" fill="#1da1f2" fill-rule="evenodd"/></svg>